<svg width="520" height="138" viewBox="0 0 520 138" fill="none" xmlns="http://www.w3.org/2000/svg">
<path d="M267.218 56.7255H278.092C277.942 60.5443 277.12 63.7694 275.625 66.4007C274.131 69.0087 272.001 70.988 269.236 72.3386C266.495 73.6892 263.182 74.3645 259.296 74.3645C256.282 74.3645 253.604 73.8987 251.262 72.9673C248.92 72.0126 246.927 70.6154 245.283 68.7759C243.639 66.9363 242.393 64.6659 241.546 61.9648C240.724 59.2403 240.313 56.1084 240.313 52.569V43.9416C240.313 40.4021 240.749 37.2702 241.621 34.5458C242.518 31.8213 243.788 29.5393 245.433 27.6997C247.102 25.8369 249.107 24.4397 251.449 23.5083C253.815 22.5536 256.481 22.0762 259.445 22.0762C263.406 22.0762 266.72 22.7748 269.385 24.1719C272.051 25.5691 274.106 27.6066 275.551 30.2845C277.02 32.939 277.905 36.1874 278.204 40.0296H267.293C267.218 37.6078 266.919 35.71 266.396 34.3362C265.897 32.939 265.1 31.961 264.004 31.4022C262.908 30.82 261.388 30.529 259.445 30.529C258.001 30.529 256.755 30.7735 255.709 31.2625C254.662 31.7282 253.803 32.485 253.13 33.5328C252.458 34.5807 251.959 35.9545 251.636 37.6544C251.337 39.3543 251.187 41.4267 251.187 43.8717V52.569C251.187 54.9674 251.324 57.0165 251.598 58.7164C251.872 60.393 252.308 61.7668 252.906 62.838C253.504 63.9091 254.314 64.6892 255.335 65.1782C256.381 65.6672 257.702 65.9117 259.296 65.9117C261.139 65.9117 262.622 65.6556 263.743 65.1433C264.889 64.631 265.736 63.7112 266.284 62.3839C266.832 61.0566 267.143 59.1705 267.218 56.7255Z" fill="black"/>
<path d="M314.32 43.4176V51.8704H292.012V43.4176H314.32ZM295.113 22.8097V73.6659H284.165V22.8097H295.113ZM322.242 22.8097V73.6659H311.405V22.8097H322.242Z" fill="black"/>
<path d="M341.767 22.8097V73.6659H330.893V22.8097H341.767Z" fill="black"/>
<path d="M376.276 56.7255H387.15C387.001 60.5443 386.179 63.7694 384.684 66.4007C383.189 69.0087 381.06 70.988 378.294 72.3386C375.554 73.6892 372.241 74.3645 368.355 74.3645C365.34 74.3645 362.662 73.8987 360.321 72.9673C357.979 72.0126 355.986 70.6154 354.342 68.7759C352.698 66.9363 351.452 64.6659 350.605 61.9648C349.783 59.2403 349.372 56.1084 349.372 52.569V43.9416C349.372 40.4021 349.808 37.2702 350.68 34.5458C351.577 31.8213 352.847 29.5393 354.491 27.6997C356.16 25.8369 358.166 24.4397 360.508 23.5083C362.874 22.5536 365.54 22.0762 368.504 22.0762C372.465 22.0762 375.778 22.7748 378.444 24.1719C381.109 25.5691 383.165 27.6066 384.609 30.2845C386.079 32.939 386.964 36.1874 387.263 40.0296H376.351C376.277 37.6078 375.978 35.71 375.454 34.3362C374.956 32.939 374.159 31.961 373.063 31.4022C371.967 30.82 370.447 30.529 368.504 30.529C367.059 30.529 365.814 30.7735 364.767 31.2625C363.721 31.7282 362.862 32.485 362.189 33.5328C361.516 34.5807 361.018 35.9545 360.694 37.6544C360.395 39.3543 360.246 41.4267 360.246 43.8717V52.569C360.246 54.9674 360.383 57.0165 360.657 58.7164C360.931 60.393 361.367 61.7668 361.965 62.838C362.563 63.9091 363.372 64.6892 364.394 65.1782C365.44 65.6672 366.76 65.9117 368.355 65.9117C370.198 65.9117 371.68 65.6556 372.801 65.1433C373.947 64.631 374.794 63.7112 375.342 62.3839C375.89 61.0566 376.202 59.1705 376.276 56.7255Z" fill="black"/>
<path d="M412.916 31.8912L401.22 73.6659H389.673L406.676 22.8097H413.887L412.916 31.8912ZM422.146 73.6659L410.375 31.8912L409.291 22.8097H416.615L433.767 73.6659H422.146ZM422.557 54.6996V63.1873H398.006V54.6996H422.557Z" fill="black"/>
<path d="M474.33 46.9454V67.9026C473.558 68.6711 472.424 69.5676 470.929 70.5922C469.46 71.5934 467.529 72.4783 465.137 73.2467C462.771 73.9919 459.881 74.3645 456.468 74.3645C453.454 74.3645 450.714 73.922 448.247 73.0372C445.806 72.1523 443.701 70.8134 441.932 69.0204C440.189 67.2041 438.856 64.9454 437.934 62.2442C437.012 59.5198 436.551 56.2947 436.551 52.569V43.9066C436.551 40.2275 436.987 37.0257 437.859 34.3013C438.756 31.5535 440.052 29.2715 441.746 27.4552C443.44 25.6389 445.457 24.2884 447.799 23.4035C450.166 22.5186 452.831 22.0762 455.796 22.0762C459.881 22.0762 463.232 22.7166 465.847 23.9973C468.488 25.278 470.481 27.1758 471.826 29.6907C473.196 32.2055 474.018 35.2909 474.292 38.9468H463.717C463.543 36.8045 463.157 35.1279 462.559 33.917C461.986 32.7062 461.177 31.8446 460.13 31.3323C459.084 30.7967 457.726 30.529 456.057 30.529C454.612 30.529 453.354 30.7735 452.283 31.2625C451.212 31.7282 450.315 32.4966 449.593 33.5678C448.87 34.6389 448.335 36.0128 447.986 37.6893C447.637 39.3659 447.463 41.4151 447.463 43.8368V52.569C447.463 54.9674 447.662 57.0165 448.061 58.7164C448.459 60.4163 449.045 61.8018 449.817 62.8729C450.614 63.9441 451.61 64.7241 452.806 65.2131C454.027 65.6788 455.459 65.9117 457.103 65.9117C458.424 65.9117 459.483 65.7836 460.28 65.5275C461.077 65.2714 461.712 65.0036 462.185 64.7241C462.684 64.4214 463.095 64.1886 463.419 64.0256V54.6647H455.609V46.9454H474.33Z" fill="black"/>
<path d="M519.676 44.2909V52.7785C519.676 56.3645 519.202 59.5081 518.256 62.2093C517.334 64.8871 516.014 67.1342 514.295 68.9505C512.601 70.7435 510.546 72.0941 508.129 73.0022C505.738 73.9104 503.085 74.3645 500.17 74.3645C497.255 74.3645 494.59 73.9104 492.173 73.0022C489.782 72.0941 487.714 70.7435 485.97 68.9505C484.252 67.1342 482.919 64.8871 481.972 62.2093C481.026 59.5081 480.552 56.3645 480.552 52.7785V44.2909C480.552 40.6117 481.013 37.3983 481.935 34.6505C482.857 31.8795 484.189 29.5742 485.933 27.7347C487.677 25.8718 489.745 24.4747 492.136 23.5432C494.528 22.5885 497.181 22.1111 500.095 22.1111C503.01 22.1111 505.663 22.5885 508.055 23.5432C510.446 24.4747 512.514 25.8718 514.258 27.7347C516.001 29.5742 517.334 31.8795 518.256 34.6505C519.202 37.3983 519.676 40.6117 519.676 44.2909ZM508.802 52.7785V44.221C508.802 41.7993 508.615 39.7385 508.241 38.0386C507.868 36.3155 507.307 34.9067 506.56 33.8123C505.812 32.7178 504.903 31.9145 503.832 31.4022C502.761 30.8899 501.515 30.6337 500.095 30.6337C498.675 30.6337 497.417 30.8899 496.321 31.4022C495.25 31.9145 494.341 32.7178 493.593 33.8123C492.871 34.9067 492.323 36.3155 491.949 38.0386C491.6 39.7385 491.426 41.7993 491.426 44.221V52.7785C491.426 55.1071 491.613 57.098 491.987 58.7513C492.36 60.4046 492.921 61.7552 493.668 62.8031C494.415 63.8509 495.325 64.631 496.396 65.1433C497.492 65.6323 498.75 65.8768 500.17 65.8768C501.565 65.8768 502.798 65.6323 503.869 65.1433C504.966 64.631 505.875 63.8509 506.597 62.8031C507.32 61.7552 507.868 60.4046 508.241 58.7513C508.615 57.098 508.802 55.1071 508.802 52.7785Z" fill="black"/>
<path d="M256.467 111.806H248.183V105.492H256.467C257.616 105.492 258.552 105.249 259.274 104.764C260.016 104.279 260.553 103.612 260.887 102.764C261.22 101.897 261.387 100.927 261.387 99.8534C261.387 98.7621 261.211 97.7488 260.859 96.8134C260.525 95.8606 259.997 95.0898 259.274 94.5008C258.57 93.9119 257.634 93.6174 256.467 93.6174H250.796V125.135H242.679V87.3034H256.467C259.191 87.3034 261.535 87.8404 263.5 88.9144C265.464 89.9884 266.965 91.4694 268.003 93.3576C269.059 95.2284 269.587 97.3764 269.587 99.8015C269.587 102.244 269.059 104.366 268.003 106.167C266.965 107.952 265.464 109.337 263.5 110.325C261.535 111.312 259.191 111.806 256.467 111.806Z" fill="black"/>
<path d="M297.677 118.847V125.135H280.081V118.847H297.677ZM282.611 87.3034V125.135H274.466V87.3034H282.611ZM295.315 102.634V108.74H280.081V102.634H295.315ZM297.622 87.3034V93.6174H280.081V87.3034H297.622Z" fill="black"/>
<path d="M318.54 87.3034V125.135H310.451V87.3034H318.54ZM328.603 87.3034V93.6174H300.583V87.3034H328.603Z" fill="black"/>
<path d="M343.67 87.3034H356.652C359.357 87.3034 361.664 87.7365 363.573 88.6026C365.482 89.4687 366.946 90.7505 367.965 92.4481C368.985 94.1457 369.494 96.2417 369.494 98.7362C369.494 100.78 369.198 102.53 368.605 103.985C368.012 105.423 367.168 106.626 366.075 107.597C364.982 108.549 363.675 109.311 362.156 109.883L359.682 111.26H349.146L349.119 104.946H356.429C357.541 104.946 358.458 104.721 359.181 104.271C359.923 103.803 360.469 103.153 360.821 102.322C361.192 101.473 361.377 100.486 361.377 99.3598C361.377 98.1645 361.21 97.1425 360.877 96.2937C360.562 95.4276 360.052 94.7693 359.348 94.319C358.662 93.8512 357.764 93.6174 356.652 93.6174H351.815V125.135H343.67V87.3034ZM362.044 125.135L354.622 108.272L363.156 108.246L370.745 124.772V125.135H362.044Z" fill="black"/>
<path d="M397.807 118.847V125.135H380.211V118.847H397.807ZM382.74 87.3034V125.135H374.596V87.3034H382.74ZM395.444 102.634V108.74H380.211V102.634H395.444ZM397.751 87.3034V93.6174H380.211V87.3034H397.751Z" fill="black"/>
<path d="M419.114 115.184C419.114 114.508 419.049 113.893 418.919 113.339C418.79 112.785 418.512 112.274 418.086 111.806C417.678 111.338 417.076 110.87 416.279 110.403C415.5 109.935 414.481 109.45 413.221 108.948C411.72 108.359 410.265 107.735 408.857 107.077C407.448 106.401 406.179 105.622 405.048 104.738C403.918 103.855 403.019 102.816 402.352 101.62C401.703 100.408 401.379 98.9873 401.379 97.359C401.379 95.7654 401.685 94.319 402.296 93.0198C402.927 91.7206 403.816 90.612 404.965 89.6939C406.114 88.7585 407.458 88.0396 408.996 87.5373C410.552 87.0349 412.285 86.7837 414.194 86.7837C416.788 86.7837 419.031 87.2861 420.921 88.2908C422.83 89.2955 424.303 90.6726 425.341 92.4222C426.397 94.1717 426.925 96.1811 426.925 98.4503H418.808C418.808 97.3764 418.642 96.4323 418.308 95.6181C417.993 94.7867 417.483 94.1371 416.779 93.6694C416.075 93.2017 415.167 92.9678 414.055 92.9678C413.017 92.9678 412.155 93.167 411.47 93.5654C410.803 93.9465 410.302 94.4749 409.969 95.1504C409.654 95.8087 409.496 96.5535 409.496 97.385C409.496 98.0086 409.654 98.5716 409.969 99.0739C410.302 99.559 410.756 100.001 411.331 100.399C411.905 100.78 412.582 101.153 413.36 101.516C414.157 101.88 415.028 102.235 415.973 102.582C417.808 103.257 419.429 104.002 420.837 104.816C422.246 105.613 423.423 106.514 424.368 107.519C425.313 108.506 426.026 109.623 426.508 110.87C426.99 112.118 427.231 113.538 427.231 115.132C427.231 116.708 426.934 118.146 426.341 119.445C425.767 120.727 424.924 121.836 423.812 122.771C422.7 123.689 421.356 124.399 419.781 124.902C418.225 125.404 416.483 125.655 414.555 125.655C412.684 125.655 410.914 125.413 409.246 124.928C407.578 124.425 406.105 123.672 404.826 122.667C403.566 121.645 402.574 120.354 401.852 118.795C401.129 117.219 400.768 115.357 400.768 113.209H408.912C408.912 114.352 409.033 115.331 409.274 116.145C409.515 116.942 409.885 117.583 410.386 118.068C410.886 118.536 411.497 118.891 412.22 119.133C412.962 119.358 413.805 119.471 414.75 119.471C415.825 119.471 416.677 119.28 417.307 118.899C417.956 118.518 418.419 118.007 418.697 117.366C418.975 116.725 419.114 115.998 419.114 115.184Z" fill="black"/>
<path d="M451.457 112.533H459.546C459.435 115.374 458.824 117.773 457.712 119.731C456.6 121.671 455.015 123.143 452.958 124.148C450.92 125.153 448.455 125.655 445.564 125.655C443.322 125.655 441.33 125.309 439.588 124.616C437.846 123.906 436.363 122.866 435.14 121.498C433.917 120.129 432.99 118.44 432.36 116.431C431.749 114.404 431.443 112.074 431.443 109.441V103.023C431.443 100.39 431.767 98.0606 432.416 96.0339C433.083 94.0072 434.028 92.3096 435.251 90.9411C436.493 89.5553 437.985 88.516 439.727 87.8231C441.487 87.1129 443.47 86.7577 445.675 86.7577C448.622 86.7577 451.087 87.2774 453.069 88.3168C455.052 89.3561 456.581 90.8718 457.656 92.8639C458.749 94.8386 459.407 97.2551 459.63 100.113H451.513C451.457 98.3118 451.235 96.9 450.846 95.878C450.475 94.8386 449.882 94.1111 449.067 93.6954C448.251 93.2623 447.121 93.0458 445.675 93.0458C444.6 93.0458 443.674 93.2276 442.895 93.5914C442.117 93.9379 441.478 94.5008 440.977 95.2803C440.477 96.0598 440.106 97.0819 439.866 98.3464C439.643 99.6109 439.532 101.153 439.532 102.971V109.441C439.532 111.226 439.634 112.75 439.838 114.014C440.042 115.262 440.366 116.284 440.811 117.081C441.255 117.877 441.858 118.458 442.617 118.821C443.396 119.185 444.378 119.367 445.564 119.367C446.935 119.367 448.038 119.177 448.872 118.795C449.724 118.414 450.354 117.73 450.762 116.743C451.17 115.755 451.402 114.352 451.457 112.533Z" fill="black"/>
<path d="M482.244 87.3034H490.361V113.287C490.361 116.197 489.786 118.57 488.637 120.406C487.507 122.225 485.941 123.559 483.939 124.408C481.938 125.239 479.649 125.655 477.073 125.655C474.479 125.655 472.172 125.239 470.152 124.408C468.132 123.559 466.556 122.225 465.426 120.406C464.314 118.57 463.758 116.197 463.758 113.287V87.3034H471.875V113.287C471.875 114.933 472.07 116.197 472.459 117.081C472.867 117.964 473.45 118.57 474.21 118.899C474.988 119.211 475.943 119.367 477.073 119.367C478.222 119.367 479.167 119.211 479.909 118.899C480.668 118.57 481.243 117.964 481.632 117.081C482.04 116.197 482.244 114.933 482.244 113.287V87.3034Z" fill="black"/>
<path d="M519.229 118.847V125.135H501.633V118.847H519.229ZM504.163 87.3034V125.135H496.018V87.3034H504.163ZM516.866 102.634V108.74H501.633V102.634H516.866ZM519.173 87.3034V93.6174H501.633V87.3034H519.173Z" fill="black"/>
<path d="M127.55 135.919C128.032 136.384 128.607 136.753 129.242 137.005C129.878 137.257 130.56 137.387 131.25 137.387C131.94 137.387 132.622 137.257 133.258 137.005C133.893 136.753 134.468 136.384 134.95 135.919L201.423 72.5042C229.145 46.0646 209.446 0.387207 170.023 0.387207C146.347 0.387207 135.483 16.7677 131.25 19.8272C126.996 16.7546 116.201 0.387207 92.4774 0.387207C53.1783 0.387207 33.2377 45.9472 61.0838 72.5042L127.55 135.919Z" fill="#F1A13E"/>
<path d="M197.129 76.4084H171.538L166.447 47.6578C166.341 47.057 166.012 46.511 165.519 46.1169C165.026 45.7228 164.4 45.506 163.753 45.5051H163.717C163.065 45.5109 162.435 45.7367 161.944 46.1416C161.453 46.5465 161.132 47.1037 161.04 47.7122L156.023 80.7917L150.058 24.6447C149.989 24.0194 149.681 23.4391 149.19 23.0125C148.7 22.5859 148.061 22.3421 147.394 22.3269H147.336C146.678 22.3265 146.042 22.5498 145.544 22.9558C145.047 23.3617 144.722 23.9231 144.628 24.5367L136.759 76.4084H132.987L128.086 60.2534C127.738 59.11 126.557 58.3091 125.359 58.3865C124.749 58.4064 124.164 58.6178 123.696 58.9869C123.229 59.3561 122.906 59.8619 122.779 60.4237L119.193 76.4088H89.8961C89.5368 76.4085 89.181 76.4749 88.849 76.6042C88.517 76.7335 88.2154 76.9232 87.9613 77.1624C87.7073 77.4016 87.5058 77.6856 87.3684 77.9982C87.2311 78.3108 87.1606 78.6458 87.1609 78.9841C87.1603 79.3224 87.2307 79.6575 87.368 79.9702C87.5053 80.2829 87.7067 80.567 87.9608 80.8062C88.2149 81.0454 88.5167 81.2351 88.8488 81.3644C89.1809 81.4936 89.5368 81.5599 89.8961 81.5594H121.406C122.033 81.5594 122.641 81.3565 123.128 80.9847C123.615 80.6129 123.952 80.0948 124.081 79.5173L125.848 71.6418L128.291 79.6898C128.454 80.2287 128.8 80.7026 129.275 81.04C129.751 81.3773 130.33 81.5596 130.925 81.5594H139.131C139.789 81.5602 140.425 81.3374 140.922 80.9319C141.42 80.5264 141.745 79.9655 141.839 79.3522L146.855 46.275L152.821 102.419C152.889 103.045 153.197 103.625 153.688 104.052C154.178 104.479 154.817 104.722 155.485 104.737H155.542C156.2 104.738 156.836 104.515 157.334 104.109C157.831 103.704 158.156 103.143 158.25 102.53L163.956 64.9203L166.522 79.4062C166.628 80.0075 166.957 80.5538 167.451 80.948C167.945 81.3422 168.571 81.5588 169.219 81.5594H191.996C199.463 74.5383 197.129 77.1554 197.129 76.4084Z" fill="white"/>
<path d="M69.8554 74.1065L82.4191 67.5662L96.3044 90.8718L83.7408 97.4121L69.8554 74.1065Z" fill="white"/>
<path d="M51.2165 66.5231H71.0231V113.766H51.2165V66.5231Z" fill="white"/>
<path d="M65.5226 60.198L71.4613 67.4293L62.3888 73.9394L56.4501 66.708L65.5226 60.198Z" fill="white"/>
<path d="M28.6781 90.7829H51.2173V113.575H28.6781V90.7829Z" fill="white"/>
<path d="M56.0532 103.607C61.0924 95.7513 59.8426 89.9446 58.9303 85.7045C58.5797 84.0766 57.5891 79.8036 59.5088 78.4633C59.7892 78.3419 63.9821 77.0701 66.0089 74.112C68.187 71.0591 67.4625 64.4317 67.4625 64.4317C67.4625 64.4317 63.4539 63.6628 63.1473 63.5682C62.8945 63.4398 62.7369 63.2599 62.2445 62.5368C69.2665 57.125 75.9838 53.1109 79.0693 45.628C82.0354 38.4337 86.0089 30.7406 88.2475 26.5556C90.1661 23.001 91.6474 26.7563 91.6474 26.7563L96.1384 35.7471L105.617 38.277L109.762 42.8037L122.873 44.6776C122.873 44.6776 124.458 59.3492 110.893 59.1682C110.435 59.1621 101.691 59.6893 101.691 59.6893L93.7069 81.9976L103.723 103.388C103.723 103.388 111.83 103.388 113.501 110.926C113.577 113.052 112 113.833 109.621 113.833H99.5644C95.2435 113.833 94.0978 110.941 94.0978 110.941L85.2016 96.0887C88.6806 84.9609 86.8451 74.8107 75.2866 72.5987C75.2828 72.603 75.2789 72.6067 75.2749 72.6107C87.2795 75.9712 83.3661 91.3914 81.9612 95.33L78.108 103.388C78.108 103.388 86.0951 103.388 87.8473 110.759C88.6381 113.794 83.5923 113.833 83.5923 113.833H66.5368C62.1989 113.833 63.6399 108.07 63.6399 108.07L67.6643 98.7835C67.6643 98.7835 65.0726 103.735 60.3405 107.937C58.8615 106.813 57.0375 106.094 56.3149 105.253C55.5659 104.38 56.0532 103.607 56.0532 103.607Z" fill="black"/>
<path d="M64.2639 67.378C64.2639 67.378 62.2527 67.0093 61.635 66.7308C59.9872 65.9864 59.5001 64.8359 58.4053 63.3201C56.9865 61.3555 52.4079 60.4681 52.4079 60.4681L52.2725 53.6527C52.2725 53.6527 43.5888 60.3054 42.1001 62.639C39.5606 66.6206 38.2822 73.3656 38.2822 73.3656C38.2822 73.3656 37.9136 76.3948 33.5654 80.4136C29.4649 84.2034 14.3435 85.2707 12.6334 102.217C11.2193 101.958 9.73126 101.416 8.88503 100.346C7.20641 98.221 8.29548 94.3709 9.50466 91.5151C13.9213 81.0859 14.3289 73.8921 10.6835 70.711C8.58082 68.8764 5.51849 68.6778 2.27994 70.166C0.862074 70.8173 0.273721 72.4274 0.966178 73.7617C1.65887 75.0957 3.36948 75.6495 4.78783 74.9973C5.8203 74.5227 6.58106 74.4654 6.79715 74.6534C7.54763 75.3085 8.54358 79.2574 4.19542 89.5254C1.64455 95.5486 1.68753 100.278 4.32245 103.583C6.56625 106.398 10.1217 107.359 12.7683 107.666C14.0935 112.294 19.5663 113.592 22.6286 113.592H44.5401C44.5177 113.613 46.4745 113.494 46.2512 112.321C45.8455 110.183 43.9193 109.512 41.5301 109.502C39.1404 109.492 38.4701 109.535 36.8949 109.56C36.1043 109.573 44.5069 107.57 43.8412 101.547C42.0609 89.5744 28.4202 94.5 28.4202 94.5C41.8701 88.2487 44.6872 98.5141 44.6872 98.5141C44.707 98.5618 47.8381 111.031 47.8381 111.031C47.8381 111.031 48.5468 113.83 51.1686 113.83H57.4053C57.3831 113.852 59.3396 113.733 59.1166 112.56C58.4666 109.139 56.0664 110.536 53.4404 107.408C50.8143 104.278 52.9153 101.808 52.9153 101.808C59.0426 92.2555 54.4205 87.0017 54.6658 81.2209C54.8408 77.1037 57.6419 75.4568 57.6419 75.4568C60.6183 74.139 62.0968 73.879 63.6787 71.275C64.667 69.648 64.2639 67.378 64.2639 67.378Z" fill="black"/>
</svg>
